<svg width="40" height="40" viewBox="0 0 40 40" fill="none" xmlns="http://www.w3.org/2000/svg">
<path d="M11.6667 14.1667L16.5701 17.0657C19.4287 18.7558 20.5714 18.7558 23.43 17.0657L28.3334 14.1667" stroke="#0037AF" stroke-width="2.5" stroke-linecap="round" stroke-linejoin="round"/>
<path d="M3.3596 22.4593C3.46855 27.5687 3.52303 30.1232 5.40825 32.0157C7.29345 33.908 9.9172 33.9738 15.1647 34.1057C18.3988 34.187 21.6011 34.187 24.8353 34.1057C30.0828 33.9738 32.7065 33.908 34.5918 32.0157C36.477 30.1232 36.5315 27.5687 36.6403 22.4593C36.6755 20.8165 36.6755 19.1835 36.6403 17.5407C36.5315 12.4314 36.477 9.87682 34.5918 7.98444C32.7065 6.09205 30.0828 6.02614 24.8353 5.89429C21.6011 5.81302 18.3988 5.81302 15.1647 5.89427C9.9172 6.0261 7.29345 6.09202 5.40823 7.98442C3.52301 9.8768 3.46855 12.4314 3.35958 17.5407C3.32455 19.1835 3.32456 20.8165 3.3596 22.4593Z" stroke="#0037AF" stroke-width="2.5" stroke-linecap="round" stroke-linejoin="round"/>
</svg>
