<svg width="40" height="40" viewBox="0 0 40 40" fill="none" xmlns="http://www.w3.org/2000/svg">
<path d="M5 18.3333C5 12.0838 5 8.959 6.59152 6.76845C7.10552 6.061 7.72767 5.43885 8.43512 4.92485C10.6257 3.33334 13.7504 3.33334 20 3.33334C26.2495 3.33334 29.3743 3.33334 31.5648 4.92485C32.2723 5.43885 32.8945 6.061 33.4085 6.76845C35 8.959 35 12.0838 35 18.3333V21.6667C35 27.9162 35 31.041 33.4085 33.2315C32.8945 33.939 32.2723 34.5612 31.5648 35.0752C29.3743 36.6667 26.2495 36.6667 20 36.6667C13.7504 36.6667 10.6257 36.6667 8.43512 35.0752C7.72767 34.5612 7.10552 33.939 6.59152 33.2315C5 31.041 5 27.9162 5 21.6667V18.3333Z" stroke="#0037AF" stroke-width="2.5" stroke-linecap="round" stroke-linejoin="round"/>
<path d="M25 11.6667H11.6666M16.6666 20H11.6666" stroke="#0037AF" stroke-width="2.5" stroke-linecap="round" stroke-linejoin="round"/>
</svg>
