<svg width="16" height="16" viewBox="0 0 16 16" fill="none" xmlns="http://www.w3.org/2000/svg">
<path d="M2.66669 4.66683C3.05991 5.07139 4.10651 6.66683 4.66669 6.66683C5.22687 6.66683 6.27346 5.07139 6.66669 4.66683M4.66669 6.00016V1.3335" stroke="#0037AF" stroke-linecap="round" stroke-linejoin="round"/>
<path d="M2.66669 8.66683V9.6963C2.66669 11.8596 2.66669 12.9413 3.2574 13.674C3.37674 13.822 3.51156 13.9568 3.65957 14.0761C4.39223 14.6668 5.4739 14.6668 7.63722 14.6668C8.10762 14.6668 8.34275 14.6668 8.55815 14.5908C8.60295 14.575 8.64682 14.5568 8.68969 14.5364C8.89575 14.4378 9.06202 14.2715 9.39462 13.9389L12.5523 10.7812C12.9377 10.3958 13.1304 10.2032 13.2319 9.9581C13.3334 9.7131 13.3334 9.44056 13.3334 8.89556V6.66683C13.3334 4.15267 13.3334 2.8956 12.5523 2.11454C11.7713 1.3335 10.5142 1.3335 8.00002 1.3335M8.66669 14.3335V14.0002C8.66669 12.1146 8.66669 11.1718 9.25249 10.586C9.83829 10.0002 10.7811 10.0002 12.6667 10.0002H13" stroke="#0037AF" stroke-linecap="round" stroke-linejoin="round"/>
</svg>
