<svg width="16" height="16" viewBox="0 0 16 16" fill="none" xmlns="http://www.w3.org/2000/svg">
<path d="M9.33337 14H8.00004C4.85734 14 3.28599 14 2.30969 13.0237C1.33337 12.0474 1.33337 10.476 1.33337 7.33333V5.29618C1.33337 4.0852 1.33337 3.47971 1.58692 3.02537C1.76765 2.70151 2.03489 2.43428 2.35875 2.25355C2.81308 2 3.41857 2 4.62955 2C5.40539 2 5.79331 2 6.13288 2.12734C6.90817 2.41808 7.22791 3.12239 7.57777 3.82209L8.00004 4.66667M5.33337 4.66667H11.1667C12.5712 4.66667 13.2734 4.66667 13.7778 5.00373C13.9962 5.14965 14.1837 5.33715 14.3296 5.55553C14.6667 6.05997 14.6667 6.7622 14.6667 8.16667" stroke="#0037AF" stroke-linecap="round"/>
<path d="M10.6666 11.9998C11.0598 12.4044 12.1064 13.9998 12.6666 13.9998C13.2268 13.9998 14.2734 12.4044 14.6666 11.9998M12.6666 13.3332V8.6665" stroke="#0037AF" stroke-linecap="round"/>
</svg>
