<svg width="34" height="34" viewBox="0 0 34 34" fill="none" xmlns="http://www.w3.org/2000/svg">
<g clip-path="url(#clip0_545_1773)">
<path fill-rule="evenodd" clip-rule="evenodd" d="M8.13473 0H20.4L30.6 10.2V29.5737C30.6 32.0205 28.4825 34 25.8742 34H8.13473C5.51743 34 3.39996 32.0205 3.39996 29.5737V4.42627C3.39992 1.9795 5.51738 0 8.13473 0Z" fill="#0037AF"/>
<path d="M20.4 6.93945V0L30.6 10.2H23.8145C20.7611 10.2 20.4 8.0507 20.4 6.93945Z" fill="white" fill-opacity="0.3"/>
<path fill-rule="evenodd" clip-rule="evenodd" d="M14.9169 15.4722C13.7334 15.4722 13.2116 15.5764 12.682 15.8596C12.2105 16.1118 11.8376 16.4848 11.5854 16.9563C11.3022 17.4859 11.1979 18.0076 11.1979 19.1911V21.4233C11.1979 22.6068 11.3022 23.1286 11.5854 23.6582C11.8376 24.1297 12.2105 24.5026 12.682 24.7548C13.2116 25.038 13.7334 25.1423 14.9169 25.1423H19.0831C20.2666 25.1423 20.7884 25.038 21.318 24.7548C21.7895 24.5026 22.1624 24.1297 22.4146 23.6582C22.6978 23.1286 22.802 22.6068 22.802 21.4233V19.1911C22.802 18.0076 22.6978 17.4859 22.4146 16.9563C22.1624 16.4848 21.7895 16.1118 21.318 15.8596C20.7884 15.5764 20.2666 15.4722 19.0831 15.4722H14.9169ZM13.1381 16.7124C13.4575 16.5415 13.7879 16.4392 14.9169 16.4392H16.5165V18.3732H12.1914C12.2321 17.8661 12.3182 17.6365 12.4381 17.4123C12.6002 17.1093 12.8351 16.8744 13.1381 16.7124ZM16.5165 19.3402H12.1649V21.2742H16.5165V19.3402ZM17.4835 21.2742V19.3402H21.835V21.2742H17.4835ZM16.5165 22.2412H12.1914C12.2321 22.7484 12.3182 22.9779 12.4381 23.2021C12.6002 23.5051 12.8351 23.74 13.1381 23.9021C13.4575 24.0729 13.7879 24.1753 14.9169 24.1753H16.5165V22.2412ZM17.4835 24.1753V22.2412H21.8086C21.7679 22.7484 21.6817 22.9779 21.5618 23.2021C21.3998 23.5051 21.1649 23.74 20.8619 23.9021C20.5424 24.0729 20.2121 24.1753 19.0831 24.1753H17.4835ZM17.4835 18.3732V16.4392H19.0831C20.2121 16.4392 20.5424 16.5415 20.8619 16.7124C21.1649 16.8744 21.3998 17.1093 21.5618 17.4123C21.6817 17.6365 21.7679 17.8661 21.8086 18.3732H17.4835Z" fill="white"/>
</g>
<defs>
<clipPath id="clip0_545_1773">
<rect width="34" height="34" fill="white"/>
</clipPath>
</defs>
</svg>
