<svg width="24" height="24" viewBox="0 0 24 24" fill="none" xmlns="http://www.w3.org/2000/svg">
<path fill-rule="evenodd" clip-rule="evenodd" d="M5.74209 0H14.3999L21.5999 7.2V20.8756C21.5999 22.6027 20.1052 24 18.2641 24H5.74209C3.89459 24 2.3999 22.6027 2.3999 20.8756V3.12443C2.39987 1.3973 3.89455 0 5.74209 0Z" fill="#0037AF"/>
<path d="M14.4 4.89844V0L21.6 7.2H16.8103C14.6549 7.2 14.4 5.68284 14.4 4.89844Z" fill="white" fill-opacity="0.3"/>
<path d="M14.9864 13.6858V17.3208C14.9864 17.5584 14.892 17.7862 14.724 17.9543C14.556 18.1223 14.3281 18.2167 14.0905 18.2167H9.90958C9.67197 18.2167 9.44409 18.1223 9.27608 17.9543C9.10806 17.7862 9.01367 17.5584 9.01367 17.3208V11.3481C9.01367 11.1104 9.10806 10.8826 9.27608 10.7146C9.44409 10.5465 9.67197 10.4521 9.90958 10.4521H11.7527C11.9111 10.4522 12.0629 10.5151 12.1749 10.627L14.8115 13.2636C14.9234 13.3756 14.9864 13.5275 14.9864 13.6858Z" stroke="white" stroke-width="0.895906" stroke-linejoin="round"/>
<path d="M12 10.6016V12.8413C12 12.9997 12.0629 13.1517 12.1749 13.2637C12.2869 13.3757 12.4389 13.4386 12.5973 13.4386H14.837" stroke="white" stroke-width="0.895906" stroke-linecap="round" stroke-linejoin="round"/>
<path d="M10.5068 14.9316H13.4932" stroke="white" stroke-width="0.895906" stroke-linecap="round" stroke-linejoin="round"/>
<path d="M10.5068 16.4248H13.4932" stroke="white" stroke-width="0.895906" stroke-linecap="round" stroke-linejoin="round"/>
</svg>
