<svg width="24" height="24" viewBox="0 0 24 24" fill="none" xmlns="http://www.w3.org/2000/svg">
<path d="M1 9.5H23V15.5H1V9.5Z" fill="white"/>
<path d="M1 6.5C1 5.67157 1.67157 5 2.5 5H21.5C22.3284 5 23 5.67157 23 6.5V9.5H1V6.5Z" fill="#E12B2B"/>
<path d="M1 15.5H23V18.5C23 19.3284 22.3284 20 21.5 20H2.5C1.67157 20 1 19.3284 1 18.5V15.5Z" fill="#229A2E"/>
<path d="M10.9604 14.5321C10.7289 14.598 10.5938 14.3778 10.5938 14.3778L10.7771 14.2955L10.8657 14.0117L11.049 14.2756H11.2555C11.2561 14.2751 11.209 14.4612 10.9604 14.5321ZM13.8809 14.7801C13.5262 14.6735 12.6993 14.5316 12.0716 14.5316C11.4451 14.5316 10.6176 14.6735 10.2624 14.7801C9.90711 14.8868 9.99054 15.2291 10.2624 15.1224C10.5342 15.0157 11.1965 14.9095 12.0716 14.9095C12.9467 14.9095 13.609 15.0162 13.8809 15.1224C14.1533 15.2291 14.2356 14.8868 13.8809 14.7801ZM12.2141 14.1417L12.0722 13.905L11.9303 14.1417L11.6817 14.2484C11.6817 14.2484 11.8588 14.4487 12.0722 14.4487C12.2856 14.4487 12.4626 14.2484 12.4626 14.2484L12.2141 14.1417ZM13.184 14.5321C13.4155 14.598 13.5506 14.3778 13.5506 14.3778L13.3673 14.2955L13.2787 14.0117L13.096 14.2756H12.8889C12.8877 14.2751 12.9354 14.4612 13.184 14.5321Z" fill="#FFAC33"/>
<path d="M14.5429 13.82C14.4838 13.6684 14.3374 14.0742 13.9402 14.0118C13.4907 13.9408 13.3965 13.4914 13.3965 13.4914C13.3965 13.4914 13.0418 13.8466 12.6752 13.6809C12.3085 13.5152 12.2143 13.2791 12.2143 13.0186C12.2143 12.7581 12.1808 12.5669 12.2143 12.463C12.2677 12.2973 12.4629 12.1787 12.6638 12.3683C12.8295 12.1322 12.5458 11.6356 12.0725 11.6356C11.5997 11.6356 11.3159 12.1322 11.4811 12.3683C11.682 12.1793 11.8772 12.2973 11.9306 12.463C11.9641 12.5669 11.9306 12.7581 11.9306 13.0186C11.9306 13.2791 11.8358 13.5152 11.4697 13.6809C11.1037 13.8466 10.7484 13.4914 10.7484 13.4914C10.7484 13.4914 10.6537 13.9408 10.2047 14.0118C9.80749 14.0742 9.66107 13.6684 9.60204 13.82C9.54302 13.9715 9.86197 14.4255 10.3114 14.2785C10.7609 14.131 10.8199 13.7519 10.8199 13.7519C10.8199 13.7519 11.0509 14.1769 11.5884 14.0118C11.9936 13.8869 12.073 13.5033 12.073 13.5033C12.073 13.5033 12.153 13.8869 12.5577 14.0118C13.0957 14.1769 13.3261 13.7519 13.3261 13.7519C13.3261 13.7519 13.3851 14.131 13.8346 14.2785C14.2829 14.4255 14.6024 13.9709 14.5429 13.82ZM11.6814 12.0607C11.7989 11.811 12.0719 11.8478 12.0719 11.8478C12.0719 11.8478 12.3443 11.811 12.4623 12.0607C12.2614 12.0839 12.0719 12.2377 12.0719 12.2377C12.0719 12.2377 11.8823 12.0845 11.6814 12.0607ZM9.37617 12.6248L9.48797 12.971H9.85175L9.55778 13.1849L9.67015 13.53L9.37617 13.316L9.0822 13.53L9.194 13.1849L8.90002 12.971H9.2638L9.37617 12.6248ZM9.73087 11.3598L9.84267 11.706H10.2065L9.91248 11.9199L10.0248 12.265L9.73087 12.051L9.4369 12.265L9.5487 11.9199L9.25472 11.706H9.6185L9.73087 11.3598ZM10.682 10.3428L10.7944 10.689H11.1582L10.8642 10.9029L10.976 11.248L10.682 11.034L10.3881 11.248L10.5004 10.9029L10.2065 10.689H10.5702L10.682 10.3428ZM12.0719 10L12.1837 10.3456H12.5475L12.2535 10.5596L12.3659 10.9046L12.0719 10.6907L11.7779 10.9046L11.8897 10.5596L11.5957 10.3456H11.9595L12.0719 10ZM14.6666 12.6248L14.5548 12.971H14.191L14.485 13.1849L14.3726 13.53L14.6666 13.316L14.9606 13.53L14.8482 13.1849L15.1427 12.971H14.7789L14.6666 12.6248ZM14.3119 11.3598L14.2001 11.706H13.8363L14.1303 11.9199L14.0179 12.265L14.3119 12.051L14.6059 12.265L14.4935 11.9199L14.788 11.706H14.4242L14.3119 11.3598ZM13.3607 10.3428L13.2483 10.689H12.8846L13.1791 10.9029L13.0667 11.248L13.3607 11.034L13.6547 11.248L13.5423 10.9029L13.8363 10.689H13.4725L13.3607 10.3428Z" fill="#FFAC33"/>
</svg>
