<svg width="18" height="22" viewBox="0 0 18 22" fill="none" xmlns="http://www.w3.org/2000/svg">
<path d="M0.75 11.75V13.2942C0.75 16.5392 0.75 18.1617 1.63607 19.2607C1.81508 19.4827 2.01731 19.6849 2.23933 19.8639C3.33831 20.75 4.96082 20.75 8.2058 20.75C8.9114 20.75 9.2641 20.75 9.5872 20.636C9.6544 20.6123 9.7202 20.585 9.7845 20.5543C10.0936 20.4064 10.343 20.157 10.8419 19.6581L15.5784 14.9216C16.1565 14.3435 16.4455 14.0545 16.5978 13.6869C16.75 13.3194 16.75 12.9106 16.75 12.0931V8.75C16.75 4.97876 16.75 3.09315 15.5784 1.92157C14.4069 0.75 12.5212 0.75 8.75 0.75M9.75 20.25V19.75C9.75 16.9216 9.75 15.5074 10.6287 14.6287C11.5074 13.75 12.9216 13.75 15.75 13.75H16.25" stroke="#0037AF" stroke-width="1.5" stroke-linecap="round" stroke-linejoin="round"/>
</svg>
