<svg width="40" height="40" viewBox="0 0 40 40" fill="none" xmlns="http://www.w3.org/2000/svg">
<path d="M25 13.3333C25 16.0948 22.7615 18.3333 20 18.3333C17.2385 18.3333 15 16.0948 15 13.3333C15 10.5719 17.2385 8.33334 20 8.33334C22.7615 8.33334 25 10.5719 25 13.3333Z" stroke="#0037AF" stroke-width="2.5" stroke-linecap="round" stroke-linejoin="round"/>
<path d="M26.6667 6.66666C29.4282 6.66666 31.6667 8.90525 31.6667 11.6667C31.6667 13.7051 30.4468 15.4587 28.6972 16.2372" stroke="#0037AF" stroke-width="2.5" stroke-linecap="round" stroke-linejoin="round"/>
<path d="M22.8572 23.3333H17.1428C13.1979 23.3333 9.99997 26.5313 9.99997 30.4762C9.99997 32.0542 11.2792 33.3333 12.8571 33.3333H27.1428C28.7208 33.3333 30 32.0542 30 30.4762C30 26.5313 26.802 23.3333 22.8572 23.3333Z" stroke="#0037AF" stroke-width="2.5" stroke-linecap="round" stroke-linejoin="round"/>
<path d="M29.5238 21.6667C33.4687 21.6667 36.6667 24.8647 36.6667 28.8095C36.6667 30.3875 35.3875 31.6667 33.8095 31.6667" stroke="#0037AF" stroke-width="2.5" stroke-linecap="round" stroke-linejoin="round"/>
<path d="M13.3333 6.66666C10.5719 6.66666 8.33334 8.90525 8.33334 11.6667C8.33334 13.7051 9.55323 15.4587 11.3028 16.2372" stroke="#0037AF" stroke-width="2.5" stroke-linecap="round" stroke-linejoin="round"/>
<path d="M6.19049 31.6667C4.61253 31.6667 3.33334 30.3875 3.33334 28.8095C3.33334 24.8647 6.53131 21.6667 10.4762 21.6667" stroke="#0037AF" stroke-width="2.5" stroke-linecap="round" stroke-linejoin="round"/>
</svg>
