<svg width="34" height="34" viewBox="0 0 34 34" fill="none" xmlns="http://www.w3.org/2000/svg">
<g clip-path="url(#clip0_545_1687)">
<path fill-rule="evenodd" clip-rule="evenodd" d="M8.13473 0H20.4L30.6 10.2V29.5737C30.6 32.0205 28.4825 34 25.8742 34H8.13473C5.51743 34 3.39996 32.0205 3.39996 29.5737V4.42627C3.39992 1.9795 5.51738 0 8.13473 0Z" fill="#0037AF"/>
<path d="M20.4 6.93945V0L30.6 10.2H23.8145C20.7611 10.2 20.4 8.0507 20.4 6.93945Z" fill="white" fill-opacity="0.3"/>
<path d="M22.8303 21.857C21.9201 20.8837 19.4349 21.2803 18.8399 21.3524C17.9649 20.4871 17.3698 19.4418 17.1598 19.0813C17.4748 18.108 17.6848 17.1347 17.7198 16.0893C17.7198 15.1881 17.3698 14.2148 16.3897 14.2148C16.0397 14.2148 15.7246 14.4311 15.5496 14.7194C15.1296 15.4765 15.3045 16.9906 15.9696 18.5407C15.5846 19.6581 15.2345 20.7396 14.2545 22.6502C13.2394 23.0826 11.1042 24.0921 10.9291 25.1736C10.8591 25.4979 10.9641 25.8225 11.2091 26.0747C11.4542 26.291 11.7692 26.3992 12.0842 26.3992C13.3793 26.3992 14.6394 24.5608 15.5146 23.0105C16.2496 22.7583 17.4048 22.3978 18.5599 22.1815C19.925 23.4071 21.1151 23.5873 21.7452 23.5873C22.5852 23.5873 22.9003 23.2269 23.0053 22.9024C23.1802 22.542 23.0753 22.1454 22.8303 21.857ZM21.9551 22.4699C21.9201 22.7223 21.6052 22.9745 21.0451 22.8304C20.38 22.6502 19.785 22.3257 19.26 21.8931C19.715 21.8209 20.73 21.7128 21.4652 21.857C21.7452 21.9291 22.0252 22.1094 21.9551 22.4699ZM16.1097 15.0439C16.1796 14.9357 16.2847 14.8637 16.3897 14.8637C16.7047 14.8637 16.7747 15.2602 16.7747 15.5847C16.7397 16.3418 16.5996 17.0987 16.3547 17.8197C15.8296 16.3777 15.9346 15.3683 16.1097 15.0439ZM16.0397 22.0373C16.3197 21.4606 16.7048 20.4511 16.8447 20.0185C17.1597 20.5591 17.6848 21.2081 17.9649 21.4965C17.9649 21.5326 16.8797 21.7488 16.0397 22.0373ZM13.9744 23.4793C13.1694 24.8491 12.3293 25.7142 11.8742 25.7142C11.8042 25.7142 11.7342 25.6782 11.6642 25.6421C11.5591 25.57 11.5241 25.4619 11.5591 25.3177C11.6642 24.813 12.5743 24.1281 13.9744 23.4793Z" fill="white"/>
</g>
<defs>
<clipPath id="clip0_545_1687">
<rect width="34" height="34" fill="white"/>
</clipPath>
</defs>
</svg>
