<svg width="40" height="40" viewBox="0 0 40 40" fill="none" xmlns="http://www.w3.org/2000/svg">
<path d="M34.1665 17.5V16.6667C34.1665 10.3813 34.1665 7.23859 32.214 5.28595C30.2613 3.33334 27.1186 3.33334 20.8331 3.33334H19.1666C12.8814 3.33334 9.7387 3.33334 7.78608 5.28594C5.83346 7.23854 5.83343 10.3812 5.83338 16.6666L5.83331 24.1667C5.83326 29.6457 5.83325 32.3853 7.34645 34.2292C7.62351 34.5668 7.93308 34.8763 8.27068 35.1535C10.1146 36.6667 12.8541 36.6667 18.3331 36.6667" stroke="#0037AF" stroke-width="2.5" stroke-linecap="round" stroke-linejoin="round"/>
<path d="M12.5 11.6667H27.5" stroke="#0037AF" stroke-width="2.5" stroke-linecap="round" stroke-linejoin="round"/>
<path d="M12.5 20H22.5" stroke="#0037AF" stroke-width="2.5" stroke-linecap="round" stroke-linejoin="round"/>
<path d="M34.1667 33.3333V28.3333C34.1667 25.951 31.9282 23.3333 29.1667 23.3333C26.4052 23.3333 24.1667 25.951 24.1667 28.3333V34.1667C24.1667 35.5473 25.286 36.6667 26.6667 36.6667C28.0474 36.6667 29.1667 35.5473 29.1667 34.1667V28.3333" stroke="#0037AF" stroke-width="2.5" stroke-linecap="round" stroke-linejoin="round"/>
</svg>
