<svg width="75" height="75" viewBox="0 0 75 75" fill="none" xmlns="http://www.w3.org/2000/svg">
<path d="M40.625 21.875C40.625 28.7786 35.0284 34.375 28.125 34.375C21.2214 34.375 15.625 28.7786 15.625 21.875C15.625 14.9714 21.2214 9.375 28.125 9.375C35.0284 9.375 40.625 14.9714 40.625 21.875Z" stroke="#ADB9DE" stroke-width="4.6875"/>
<path d="M46.875 34.375C53.7784 34.375 59.375 28.7786 59.375 21.875C59.375 14.9714 53.7784 9.375 46.875 9.375" stroke="#ADB9DE" stroke-width="4.6875"/>
<path d="M34.375 43.75H21.875C13.2456 43.75 6.25 50.7456 6.25 59.375C6.25 62.8269 9.04822 65.625 12.5 65.625H43.75C47.2019 65.625 50 62.8269 50 59.375C50 50.7456 43.0044 43.75 34.375 43.75Z" stroke="#ADB9DE" stroke-width="4.6875"/>
<path d="M53.125 43.75C61.7544 43.75 68.75 50.7456 68.75 59.375C68.75 62.8269 65.9519 65.625 62.5 65.625H57.8125" stroke="#ADB9DE" stroke-width="4.6875"/>
</svg>
